<?xml version="1.0" encoding="UTF-8"?>
<svg id="_图层_1" data-name="图层 1" xmlns="http://www.w3.org/2000/svg" viewBox="0 0 585.79 106.78">
  <defs>
    <style>
      .cls-1 {
        fill: #009e3c;
      }

      .cls-2 {
        fill: #5a6e96;
      }
    </style>
  </defs>
  <path class="cls-1" d="M191.38,17.81c0,2.12-.37,4.15-1.05,6.04-.11,.31-.23,.59-.35,.89-3.69,8.99-12.54,15.32-22.85,15.32-1.06,0-2.1-.07-3.13-.21,1.07-1.76,1.91-3.66,2.51-5.68-6.33-2.73-10.76-9.02-10.76-16.36,0-3.59,1.06-6.91,2.87-9.71,3.18-4.88,8.68-8.1,14.93-8.1,9.84,0,17.82,7.97,17.82,17.81Z"/>
  <polygon class="cls-2" points="74.69 9.56 0 9.56 0 26.37 28.94 26.37 28.94 106.77 45.75 106.77 45.75 26.37 74.69 26.37 74.69 9.56"/>
  <rect class="cls-2" x="143.69" y="68.49" width="59.75" height="16.81" transform="translate(250.46 -96.67) rotate(90)"/>
  <path class="cls-2" d="M153.42,67.1v39.68h-16.81v-39.68c0-4.46-1.77-8.74-4.93-11.89-3.14-3.16-7.41-4.91-11.88-4.91s-8.74,1.76-11.88,4.91c-3.16,3.16-4.93,7.43-4.93,11.89v39.68h-16.81V9.68h16.81v28.31c5.06-2.93,10.85-4.5,16.81-4.5s11.75,1.57,16.81,4.5c1.18,.67,2.32,1.44,3.42,2.26,1.25,.93,2.43,1.96,3.55,3.08,6.29,6.29,9.84,14.85,9.84,23.77Z"/>
  <path class="cls-2" d="M260.4,67.1v39.68h-16.81v-39.68c0-4.46-1.77-8.74-4.93-11.89-3.14-3.16-7.41-4.91-11.88-4.91s-8.74,1.76-11.88,4.91c-3.16,3.16-4.93,7.43-4.93,11.89v39.68h-16.81v-39.68c0-8.93,3.55-17.48,9.84-23.77,1.12-1.12,2.3-2.15,3.55-3.08,1.1-.82,2.24-1.59,3.42-2.26,5.06-2.93,10.85-4.5,16.81-4.5s11.75,1.57,16.81,4.5c1.18,.67,2.32,1.44,3.42,2.26,1.25,.93,2.43,1.96,3.55,3.08,6.29,6.29,9.84,14.85,9.84,23.77Z"/>
  <polygon class="cls-1" points="483.93 9.67 483.93 49.82 444.72 49.82 444.72 9.67 427.91 9.67 427.91 106.77 444.72 106.77 444.72 66.63 483.93 66.63 483.93 106.77 500.73 106.77 500.73 9.67 483.93 9.67"/>
  <polygon class="cls-2" points="338.13 106.78 316.81 106.78 297.57 82.15 288.41 93.06 288.41 106.78 271.6 106.78 271.6 9.68 288.41 9.68 288.41 66.92 310.78 40.25 332.72 40.25 308.61 68.99 338.13 106.78"/>
  <path class="cls-1" d="M422.76,40.25c-.19-2.32-.64-4.57-1.31-6.76-1.59-5.23-4.44-10.05-8.38-13.97-6.31-6.31-14.85-9.84-23.77-9.84h-39.96V106.78h16.81v-29.88h23.15c8.93,0,17.46-3.55,23.77-9.86,6.31-6.29,9.84-14.85,9.84-23.75,0-1.03-.04-2.04-.15-3.04Zm-21.57,14.92c-3.16,3.16-7.43,4.93-11.89,4.93h-23.15V26.49h23.15c4.46,0,8.74,1.76,11.89,4.91,.65,.65,1.23,1.34,1.76,2.09,1.46,2.02,2.43,4.33,2.88,6.76,.19,.99,.28,2.02,.28,3.04,0,4.44-1.77,8.72-4.91,11.88Z"/>
  <path class="cls-1" d="M585.64,40.25c-.19-2.32-.64-4.57-1.31-6.76-1.59-5.23-4.44-10.05-8.38-13.97-6.31-6.31-14.85-9.84-23.77-9.84h-39.96V106.78h16.81v-29.88h23.15c8.93,0,17.46-3.55,23.77-9.86,6.31-6.29,9.84-14.85,9.84-23.75,0-1.03-.04-2.04-.15-3.04Zm-21.57,14.92c-3.16,3.16-7.43,4.93-11.89,4.93h-23.15V26.49h23.15c4.46,0,8.74,1.76,11.89,4.91,.65,.65,1.23,1.34,1.76,2.09,1.46,2.02,2.43,4.33,2.88,6.76,.19,.99,.28,2.02,.28,3.04,0,4.44-1.77,8.72-4.91,11.88Z"/>
</svg>
